<svg viewBox="207.558 144.767 108.72 111.047" xmlns="http://www.w3.org/2000/svg">
  <circle style="stroke: rgb(0, 0, 0); fill: rgb(241, 75, 61); stroke-width: 4px;" cx="262.5" cy="199.71" r="51.453" transform="matrix(-0.999848, -0.017452, 0.017452, -0.999848, 521.476501, 403.947876)"/>
  <path d="M 213.095 249.384 C 213.279 235.657 218.946 223.23 227.956 214.234 C 236.968 205.239 249.325 199.674 262.891 199.674 C 276.456 199.674 288.664 205.239 297.433 214.234 C 306.203 223.23 311.536 235.657 311.352 249.384" style="stroke: rgb(0, 0, 0); fill: rgb(255, 255, 255);" transform="matrix(-0.999848, -0.017452, 0.017452, -0.999848, 520.493164, 453.600159)"/>
  <line style="stroke: rgb(0, 0, 0); paint-order: fill; stroke-width: 4px;" x1="274.421" y1="199.95" x2="313.956" y2="199.95" transform="matrix(-0.999848, -0.017452, 0.017452, -0.999848, 584.842651, 405.003723)"/>
  <line style="stroke: rgb(0, 0, 0); paint-order: fill; stroke-width: 4px;" x1="210.758" y1="199.685" x2="247.386" y2="199.104" transform="matrix(-0.999848, -0.017452, 0.017452, -0.999848, 454.629272, 402.756409)"/>
  <g transform="matrix(-0.999847, -0.017452, 0.017452, -0.999847, 443.54657, 471.202637)">
    <circle style="stroke: rgb(0, 0, 0); paint-order: fill;" transform="matrix(0.741278, 0, 0, 0.726744, -318.473877, -98.401161)" cx="681" cy="505" r="20"/>
    <circle style="stroke: rgb(0, 0, 0); stroke-width: 0px; fill: rgb(255, 245, 245);" transform="matrix(1, 0, 0, 1.000003, -525.663025, -267.686707)" cx="712" cy="536" r="10.757"/>
    <circle style="stroke: rgb(0, 0, 0);" cx="186.443" cy="268.532" r="5.232"/>
  </g>
</svg>